<?xml version="1.0" standalone="no"?>
<!DOCTYPE svg PUBLIC "-//W3C//DTD SVG 20010904//EN"
 "http://www.w3.org/TR/2001/REC-SVG-20010904/DTD/svg10.dtd">
<svg version="1.0" xmlns="http://www.w3.org/2000/svg"
 width="512.000000pt" height="512.000000pt" viewBox="0 0 512.000000 512.000000"
 preserveAspectRatio="xMidYMid meet">
<metadata>
Created by potrace 1.11, written by Peter Selinger 2001-2013
</metadata>
<g transform="translate(0.000000,512.000000) scale(0.100000,-0.100000)"
fill="#000000" stroke="none">
<path d="M0 2560 l0 -1920 2560 0 2560 0 0 1920 0 1920 -2560 0 -2560 0 0
-1920z m1802 952 c342 -81 510 -278 569 -667 21 -133 17 -463 -5 -589 -53
-297 -166 -469 -371 -571 -152 -75 -291 -95 -652 -95 l-263 0 0 976 0 976 318
-5 c274 -4 329 -7 404 -25z m1338 -772 c92 -437 168 -800 171 -807 2 -7 80
352 174 797 l169 810 193 0 c148 0 193 -3 193 -12 -1 -7 -103 -445 -229 -973
l-228 -960 -269 -3 -269 -2 -198 837 c-109 461 -214 900 -232 976 l-33 137
196 -2 196 -3 166 -795z"/>
<path d="M1468 3184 c-5 -4 -8 -286 -8 -626 l0 -618 78 0 c301 1 414 127 442
495 11 147 0 353 -25 450 -53 209 -156 292 -375 302 -58 3 -108 2 -112 -3z"/>
</g>
</svg>
